<svg xmlns="http://www.w3.org/2000/svg" viewBox="0 0 297.4 57.3"><defs><style>.cls-1{fill:#fff;}</style></defs><title>Asset 2</title><g id="Layer_2" data-name="Layer 2"><g id="Layer_1-2" data-name="Layer 1"><path class="cls-1" d="M14.74,42.31C9.13,51.85,5.85,55,.74,56.37v.93H14.59c9.5,0,14.59-3.83,21.18-15L58.36,4a2,2,0,0,0-1.72-3H39.07Z"/><path class="cls-1" d="M0,1v.94c4,1.5,7.39,4.49,9.51,11.82l2.74,8.94a1.43,1.43,0,0,0,2.6.32L26.16,4a2,2,0,0,0-1.71-3Z"/><path class="cls-1" d="M106.84,1H89.39V33.42c0,9.56-5.51,15.78-13.38,17v.93H91a17.92,17.92,0,0,0,17.92-17.92V3A2,2,0,0,0,106.84,1Z"/><path class="cls-1" d="M77.32,1H60.74v.94h0a1.33,1.33,0,0,1,1.33,1.34V33.55a8.64,8.64,0,1,0,17.28.13V3A2,2,0,0,0,77.32,1Z"/><path class="cls-1" d="M146.67,1.84c1.13,0,1.63.61,1.63,1.84V4.5h-7.17A9.6,9.6,0,0,0,133.28,1c-5.51,0-9.33,3.57-9.33,8s3.82,8,9.33,8A9.68,9.68,0,0,0,141,13.51h7.26v3.55h5.56V1h-7.19ZM133.28,14.05c-2.46,0-3.83-2.44-3.83-5.08s1.41-5.05,3.83-5.05,3.83,2.42,3.83,5.05-1.37,5.08-3.83,5.08m15-3.43h-5.88a7.3,7.3,0,0,0,.2-1.69,7.9,7.9,0,0,0-.17-1.54h5.85Zm-5.17,7.09c-6.34,0-10.45,3.57-10.45,8s4.11,8,10.45,8,10.46-3.62,10.46-8-4.11-8-10.46-8m0,13.12a4.87,4.87,0,0,1-4.83-5.1,4.84,4.84,0,1,1,9.67,0,4.88,4.88,0,0,1-4.84,5.1"/><path class="cls-1" d="M164.38,19.74c1.13,0,1.62.61,1.62,1.84v7.53a3.36,3.36,0,0,0,3.36,3.36h18.27V18.86H164.38Zm7.19,2.05h10.49v7.75H171.57Z"/><path class="cls-1" d="M192.59,6.45h-5V1h-7.19v.88c1.13,0,1.62.61,1.62,1.84v8.37H166.4V1.74h-7.19v.88c1.13,0,1.62.61,1.62,1.85v7.15A3.36,3.36,0,0,0,164.19,15h17.87v2.08h5.57V9.38h5Z"/><polygon class="cls-1" points="235.13 23.48 254.05 23.48 254.05 32.47 259.62 32.47 259.62 20.55 235.13 20.55 235.13 23.48"/><path class="cls-1" d="M249.93,11.14a6.6,6.6,0,0,0-1.85-4.56h3V3.76h-7V0h-7.19V.88c1.13,0,1.63.61,1.63,1.84v1h-7.06V6.58h3.13a6.56,6.56,0,0,0-1.85,4.56c0,4,3.52,7.22,8.59,7.22S249.93,15.11,249.93,11.14Zm-11.91,0c0-2.4,1.17-4.26,3.31-4.26s3.31,1.86,3.31,4.26-1.13,4.29-3.31,4.29S238,13.58,238,11.18Z"/><path class="cls-1" d="M264.59,7.91h-5V1h-7.19v.88c1.13,0,1.62.61,1.62,1.84V18.46h5.57V10.84h5Z"/><path class="cls-1" d="M218.57,1v.88c1.13,0,1.63.61,1.63,1.84V9.51h-3V1h-6.83v.88c1.13,0,1.63.61,1.63,1.84V19H202.4V5.25h6.34V2.32H195.21V3.2c1.13,0,1.62.61,1.62,1.84V18.52a3.36,3.36,0,0,0,3.36,3.36H212V32.47h5.2v-20h3v20h5.26V1Z"/><polygon class="cls-1" points="289.09 24.67 294.57 24.67 294.57 2.32 269.48 2.32 269.48 5.25 269.48 5.25 289.09 5.25 289.09 24.67"/><path class="cls-1" d="M285.81,27.34V13.5H279v.87c1.13,0,1.62.61,1.62,1.85V27.34H277V13.5h-6.83v.87c1.14,0,1.63.61,1.63,1.85V27.34H266v2.92H297.4V27.34Z"/><path class="cls-1" d="M258.3,49.39a4.37,4.37,0,0,1-2.45.7c-2.16,0-2.79-1.62-2.85-3.41h5.62v-.5c0-1.88-.62-4.43-3.57-4.44-2.79,0-4.2,2.32-4.2,4.85,0,2.72,1.59,5,4.59,5a4.88,4.88,0,0,0,2.86-.79Zm-5.17-3.94c.14-1.48.6-2.49,1.84-2.49,1,0,1.49.71,1.51,2.49Z"/><path class="cls-1" d="M266,41.79a3.15,3.15,0,0,0-2.63,1.42V42H260v1.22h1.24v7H260v1.22h4.53V50.19h-1.22V44.73a2.29,2.29,0,0,1,1.79-1.1h.28v.93h1.43V42A2.42,2.42,0,0,0,266,41.79Z"/><path class="cls-1" d="M268.05,48.49h1.42v1.19a2.55,2.55,0,0,0,1.91.74c.94,0,1.58-.49,1.58-1.28,0-.52-.38-1-1.3-1.36l-.85-.33c-1.76-.67-2.72-1.86-2.72-3.15,0-1.5,1.44-2.56,3.32-2.56a5.83,5.83,0,0,1,3,.8v2.08h-1.43V43.48a2.21,2.21,0,0,0-1.55-.52c-.81,0-1.35.42-1.35,1.06s.67,1.2,1.83,1.66l.77.32c1.41.58,2.37,1.26,2.37,2.69,0,1.8-1.36,2.94-3.68,2.94a6.13,6.13,0,0,1-3.29-.8Z"/><path class="cls-1" d="M286.55,43.17V42h-2.32V39.84l-2.05.51V42h-1.24v1.22h1.24V48.4c0,2.21,1,3.23,2.75,3.23a3.68,3.68,0,0,0,1.61-.4V50a2.35,2.35,0,0,1-1.19.29c-.73,0-1.13-.63-1.13-1.69V43.17Z"/><polygon class="cls-1" points="288.94 54.76 291.63 51.24 288.31 43.17 287.53 43.17 287.53 41.95 291.68 41.95 291.68 43.17 290.56 43.17 292.8 48.68 295.2 43.17 294.12 43.17 294.12 41.95 297.4 41.95 297.4 43.17 296.6 43.17 291.43 54.77 288.94 54.76"/><path class="cls-1" d="M224,38.65h-4.11v1.23h1.24V47c0,2.22-.83,3.38-2.68,3.38s-2.69-1.17-2.68-3.38V39.88h1.12V38.65h-4.53v1.23h1.25V47c0,2.8,1.39,4.61,4.58,4.61s4.58-1.8,4.58-4.6V39.88H224Z"/><polygon class="cls-1" points="247.21 41.95 247.21 43.17 248.32 43.17 245.88 48.67 243.61 43.17 244.75 43.17 244.75 41.95 240.6 41.95 240.6 43.17 241.39 43.17 244.81 51.41 245.99 51.41 249.68 43.17 250.46 43.17 250.46 41.95 247.21 41.95"/><path class="cls-1" d="M230.35,51.41V50.19h1.23v-5.1c0-1-.25-1.7-1.2-1.7a3.38,3.38,0,0,0-2.5,1.31v5.49h1.23v1.22h-4.52V50.19h1.24v-7h-1.24V42h3.3v1.29a4.26,4.26,0,0,1,3.07-1.5c1.86,0,2.68,1.12,2.68,3.09v5.36h1.24v1.22Z"/><rect class="cls-1" x="237.12" y="38.65" width="2.06" height="2.09"/><polygon class="cls-1" points="239.18 50.19 239.18 41.95 235.88 41.95 235.88 43.17 237.12 43.17 237.12 50.19 235.88 50.19 235.88 51.41 240.4 51.41 240.4 50.19 239.18 50.19"/><rect class="cls-1" x="277.28" y="38.65" width="2.06" height="2.09"/><polygon class="cls-1" points="279.34 50.19 279.34 41.95 276.04 41.95 276.04 43.17 277.28 43.17 277.28 50.19 276.04 50.19 276.04 51.41 280.56 51.41 280.56 50.19 279.34 50.19"/><path class="cls-1" d="M147.7,42v1.22h1.22v5.5a3.48,3.48,0,0,1-2.5,1.31c-1,0-1.21-.75-1.21-1.7V42h-3.3v1.22h1.24v5.36c0,2,.82,3.09,2.69,3.09a4.27,4.27,0,0,0,3.07-1.5v1.29h3.3V50.19H151V42Z"/><path class="cls-1" d="M158.77,51.41V50.19H160v-5.1c0-1-.25-1.7-1.2-1.7a3.38,3.38,0,0,0-2.5,1.31v5.49h1.23v1.22H153V50.19h1.24v-7H153V42h3.3v1.29a4.26,4.26,0,0,1,3.07-1.5c1.86,0,2.69,1.12,2.68,3.09v5.36h1.24v1.22Z"/><path class="cls-1" d="M179.24,51.41V50.19h1.23v-5.1c0-1-.24-1.7-1.2-1.7a3.39,3.39,0,0,0-2.5,1.31v5.49H178v1.22h-4.53V50.19h1.24v-7h-1.24V42h3.3v1.29a4.26,4.26,0,0,1,3.07-1.5c1.87,0,2.69,1.12,2.69,3.09v5.36h1.24v1.22Z"/><path class="cls-1" d="M207.78,50.19V44.63c0-1.57-.7-2.88-2.56-2.89a4,4,0,0,0-3.16,1.71,2.31,2.31,0,0,0-2.41-1.71,4.08,4.08,0,0,0-3,1.49V42h-3.3v1.22h1.24v7h-1.24v1.22h4.52V50.19h-1.22V44.7a3.56,3.56,0,0,1,2.47-1.31c.79,0,1,.41,1,1.46v5.34h-1.23v1.22h4.53V50.19h-1.24V44.7a3.56,3.56,0,0,1,2.47-1.31c.79,0,1,.41,1,1.46v5.34H204.5v1.22H209V50.19Z"/><path class="cls-1" d="M192.75,50.07a1.22,1.22,0,0,1-.52.13c-.37,0-.68-.32-.68-1V44.65c0-1.9-1.32-2.92-3.17-2.92a7,7,0,0,0-3.42.83v2h1.3l.12-1A2.12,2.12,0,0,1,188,43c1,0,1.45.51,1.48,1.78v.92h-.39c-2.6,0-4.82,1.18-4.82,3.21a2.63,2.63,0,0,0,2.88,2.77,3.61,3.61,0,0,0,2.75-1.12,1.82,1.82,0,0,0,1.62,1,2.54,2.54,0,0,0,1.35-.37Zm-3.26-.65a2.32,2.32,0,0,1-1.64.68,1.37,1.37,0,0,1-1.42-1.47c0-1.06,1.19-1.75,2.67-1.75h.39Z"/><path class="cls-1" d="M169.3,49.7H167c-.7,0-.82-.55-.54-.88a1.74,1.74,0,0,1,.56-.4c.21,0,.42,0,.65,0,2.2,0,3.59-1,3.59-3.35a3.77,3.77,0,0,0-.42-1.82l1.33.23.71-1.69-3.37.26a4.68,4.68,0,0,0-1.84-.34c-2.2,0-3.59,1.05-3.59,3.35a3,3,0,0,0,1.69,3c-.74.25-1.48.81-1.48,1.57a1.55,1.55,0,0,0,.65,1.21,1.84,1.84,0,0,0-1.55,1.72C163.43,54,165,55,168,55s4.52-.94,4.52-2.79C172.56,50.78,171.5,49.7,169.3,49.7Zm-1.59-6.84c1,0,1.52.6,1.52,2.25s-.51,2.25-1.52,2.25-1.53-.6-1.52-2.25S166.7,42.86,167.71,42.86Zm.36,10.9c-1.53,0-2.59-.49-2.59-1.41a1.09,1.09,0,0,1,.88-1.05H169c1.08,0,1.54.45,1.54,1C170.55,53.22,169.63,53.76,168.07,53.76Z"/><path class="cls-1" d="M141.14,49.39a4.35,4.35,0,0,1-2.44.7c-2.17,0-2.8-1.62-2.86-3.41h5.63v-.5c0-1.88-.63-4.43-3.57-4.44s-4.21,2.32-4.21,4.85c0,2.72,1.59,5,4.6,5a4.84,4.84,0,0,0,2.85-.79ZM136,45.45c.14-1.48.6-2.49,1.84-2.49,1,0,1.49.71,1.52,2.49Z"/><polygon class="cls-1" points="134.11 39.88 135.11 39.88 135.12 38.65 131.5 38.65 131.5 39.88 132.56 39.88 130 45.2 127.49 39.88 128.58 39.88 128.58 38.65 123.95 38.65 123.95 39.88 125.01 39.88 128.49 47 128.49 50.19 127.25 50.19 127.25 51.41 131.87 51.41 131.87 50.19 130.63 50.19 130.63 46.84 134.11 39.88"/></g></g></svg>